<svg width="372" height="243" viewBox="0 0 372 243" fill="none" xmlns="http://www.w3.org/2000/svg">
<path d="M214.717 195.225C213.848 195.225 212.999 195.504 212.277 196.027C211.555 196.549 210.992 197.292 210.66 198.161C210.328 199.03 210.241 199.987 210.41 200.909C210.58 201.832 210.998 202.679 211.612 203.344C212.226 204.01 213.008 204.463 213.86 204.646C214.712 204.83 215.595 204.736 216.397 204.376C217.199 204.016 217.885 203.406 218.368 202.624C218.85 201.842 219.107 200.922 219.107 199.981C219.107 198.72 218.645 197.51 217.821 196.618C216.998 195.726 215.881 195.225 214.717 195.225ZM214.717 202.908C214.182 202.908 213.66 202.737 213.215 202.415C212.771 202.093 212.425 201.636 212.22 201.101C212.016 200.567 211.962 199.978 212.066 199.41C212.171 198.842 212.428 198.321 212.806 197.912C213.184 197.502 213.665 197.223 214.19 197.11C214.714 196.998 215.257 197.055 215.751 197.277C216.244 197.499 216.667 197.874 216.963 198.355C217.26 198.836 217.419 199.402 217.419 199.981V199.981C217.419 200.758 217.134 201.502 216.627 202.051C216.121 202.6 215.433 202.908 214.717 202.908Z" fill="#E4E4E4"/>
<path d="M197.829 191.566H214.717V209.672C214.717 210.304 214.485 210.91 214.072 211.357C213.66 211.804 213.1 212.055 212.517 212.055H200.029C199.445 212.055 198.886 211.804 198.473 211.357C198.06 210.91 197.829 210.304 197.829 209.672V191.566Z" fill="#E4E4E4"/>
<path d="M254.175 212.469H0.342537C0.248402 212.458 0.161394 212.41 0.0981879 212.333C0.0349821 212.257 2.86102e-05 212.158 2.86102e-05 212.055C2.86102e-05 211.953 0.0349821 211.854 0.0981879 211.777C0.161394 211.701 0.248402 211.653 0.342537 211.641H254.175C254.269 211.653 254.356 211.701 254.419 211.777C254.483 211.854 254.518 211.953 254.518 212.055C254.518 212.158 254.483 212.257 254.419 212.333C254.356 212.41 254.269 212.458 254.175 212.469Z" fill="#CACACA"/>
<path d="M34.1673 204.65L32.5974 213.058L61.7904 223.62L64.1077 211.21L34.1673 204.65Z" fill="#352512"/>
<path d="M37.1022 203.06L34.0103 219.62L34.0101 219.62C33.4873 222.419 31.9596 224.878 29.7632 226.457C27.5667 228.035 24.8812 228.604 22.2976 228.038L21.981 227.969L27.0436 200.857L37.1022 203.06Z" fill="#2F2E41"/>
<path d="M67.249 88.8274C78.1964 88.8274 87.0711 79.214 87.0711 67.3553C87.0711 55.4966 78.1964 45.8832 67.249 45.8832C56.3016 45.8832 47.427 55.4966 47.427 67.3553C47.427 79.214 56.3016 88.8274 67.249 88.8274Z" fill="#352512"/>
<path d="M85.9752 47.6212C83.0116 42.4082 78.3727 38.567 72.9514 36.8369L70.5179 38.7605V36.2628C69.2159 36.0469 67.8982 35.9637 66.5819 36.0144L64.4824 38.0721V36.1853C61.3739 36.6038 58.3792 37.7154 55.687 39.45C52.9949 41.1846 50.6637 43.5046 48.8406 46.2638C44.2812 53.3838 43.5116 63.2892 47.996 70.4663C49.2269 66.3682 50.7211 62.523 51.9523 58.4253C52.9199 58.5682 53.9005 58.5733 54.8692 58.4406L56.3668 54.655L56.7853 58.2804C61.4275 57.8425 68.313 56.8804 72.7137 55.9991L72.2857 53.2178L74.8461 55.5289C76.1942 55.1928 76.9948 54.8877 76.9287 54.6546C80.2018 60.3705 84.2074 64.0211 87.48 69.737C88.7231 61.6773 90.1539 54.9759 85.9752 47.6212Z" fill="#0E0E0E"/>
<path d="M73.6984 207.864C101.886 207.864 124.737 200.94 124.737 192.399C124.737 183.858 101.886 176.934 73.6984 176.934C45.5105 176.934 22.6596 183.858 22.6596 192.399C22.6596 200.94 45.5105 207.864 73.6984 207.864Z" fill="#2F2E41"/>
<path d="M109.881 122.571C109.199 118.129 108.496 113.602 106.59 109.6C105.337 106.979 103.349 104.481 100.669 103.963C100.141 103.912 99.6219 103.782 99.127 103.577C98.3416 103.167 87.7875 96.6403 86.1101 95.5036C84.6698 94.5278 82.3961 92.7209 81.2497 92.7209C80.0964 92.6935 75.674 93.8084 58.4128 92.3468C55.5094 93.6093 52.6977 95.1068 50.0018 96.8265C49.9462 96.7868 32.0863 107.176 31.4153 107.148C30.1446 107.091 28.9635 107.972 28.235 109.082C27.5068 110.191 27.1651 111.565 26.8074 112.894C30.7083 122.304 34.2775 131.726 38.1787 141.137C38.3614 141.491 38.4585 141.89 38.4609 142.296C38.3825 142.717 38.2165 143.114 37.9755 143.455C36.0624 146.784 36.1232 150.971 36.3322 154.884C36.5414 158.796 36.8 162.929 35.1858 166.436C34.7467 167.399 34.1758 168.28 33.7582 169.243C32.7803 171.424 32.4268 178.399 32.998 180.742L104.56 182.962C103.022 178.381 109.881 122.571 109.881 122.571Z" fill="#0344F8"/>
<path d="M20.6216 141.554C20.4789 142.673 20.4645 143.807 20.5788 144.929L21.6045 160.886C21.7008 162.389 21.7956 163.89 21.9259 165.39C22.172 168.301 22.5396 171.189 22.9959 174.073C23.0062 174.483 23.166 174.871 23.4404 175.153C23.7147 175.435 24.0811 175.588 24.4591 175.577C28.9741 176.612 33.6389 176.571 38.2468 176.289C45.2782 175.864 63.2671 175.059 64.3661 173.513C65.4652 171.966 64.8247 169.465 63.3917 168.214C61.9587 166.964 38.2196 163.915 38.2196 163.915C38.4516 161.924 39.1513 160.049 39.8151 158.158C41.0074 154.805 42.1209 151.342 42.1423 147.75C42.1637 144.158 40.9145 140.382 38.1982 138.324C35.9639 136.635 33.0871 136.321 30.3643 136.391C28.3833 136.453 24.9605 135.938 23.151 136.777C21.7192 137.461 20.8891 140.035 20.6216 141.554Z" fill="#352512"/>
<path d="M110.008 177.623C111.196 177.132 112.506 177.31 113.78 177.495C117.881 178.102 122.043 178.725 125.844 180.499C127.629 181.327 129.328 182.433 130.534 184.059C131.604 185.525 132.229 187.319 132.822 189.086L134.193 193.153C134.775 194.681 135.177 196.283 135.388 197.92C135.817 202.788 132.743 207.377 128.878 209.906C125.013 212.435 120.462 213.335 116.029 214.278C111.596 215.222 107.145 216.265 102.73 217.371C100.671 217.95 98.5819 218.396 96.4737 218.705C91.7481 219.285 86.8085 218.431 82.3184 220.124C80.5338 220.801 78.7813 221.806 76.9302 222.274C75.6997 222.554 74.4557 222.759 73.2039 222.889L64.7059 223.94C62.9778 224.19 61.2381 224.335 59.495 224.373C55.7832 224.373 52.1319 223.421 48.5275 222.469C48.1445 222.396 47.78 222.236 47.4575 222.001C46.8866 221.514 46.7616 220.652 46.6795 219.871C46.3154 216.414 45.997 212.954 45.7241 209.49C45.6385 208.365 45.5743 207.147 46.1418 206.2C46.8557 205.041 48.2478 204.677 49.5184 204.452C54.9063 203.498 60.3645 203.087 65.8225 203.227C67.896 200.981 71.3154 200.969 74.0316 199.747C75.0309 199.25 75.998 198.68 76.9264 198.042C81.7849 194.971 87.2144 193.113 92.8196 192.602C93.9174 192.566 95.008 192.397 96.0713 192.1C98.173 191.392 100.09 189.466 102.249 189.938C102.517 189.138 102.703 188.067 103.319 187.518C103.625 187.236 104.005 187.047 104.287 186.745C104.883 186.092 104.936 185.063 104.847 184.151C104.757 183.238 104.557 182.303 104.775 181.413C104.866 181.076 104.999 180.755 105.172 180.458C106.239 178.458 107.855 177.43 110.008 177.623Z" fill="#2F2E41"/>
<path d="M26.601 113.18C26.2534 113.574 25.9838 114.042 25.8088 114.553C22.9238 121.596 21.2197 129.14 20.7764 136.83C20.7842 137.205 20.7044 137.576 20.5445 137.909C20.3867 138.13 20.2111 138.336 20.0198 138.524C19.8529 138.738 19.7267 138.986 19.6483 139.253C19.5698 139.52 19.5407 139.801 19.5626 140.08C19.5845 140.359 19.6569 140.631 19.7758 140.88C19.8947 141.129 20.0576 141.35 20.2554 141.531C20.2879 141.561 20.3211 141.589 20.3553 141.617C20.9442 140.416 22.3539 140.024 23.6069 139.919C29.6066 139.405 35.4671 142.429 41.4847 142.201C41.0601 140.611 40.4494 139.084 40.1032 137.476C38.572 130.335 42.3911 122.56 40.0497 115.682C39.582 114.306 38.8005 112.952 37.5692 112.349C37.0594 112.127 36.5259 111.974 35.9811 111.894C34.4605 111.596 31.4336 110.324 29.9635 110.835C29.4208 111.024 29.2068 111.577 28.7571 111.911C28.0738 112.384 27.1674 112.558 26.601 113.18Z" fill="#0344F8"/>
<path d="M109.923 136.777C108.114 135.938 104.691 136.453 102.71 136.391C99.9874 136.321 97.1107 136.635 94.8763 138.324C92.16 140.382 90.9108 144.158 90.9322 147.75C90.9536 151.342 92.0672 154.805 93.2594 158.158C93.9232 160.049 94.6229 161.924 94.8549 163.915C94.8549 163.915 71.1159 166.964 69.6828 168.214C68.2498 169.465 67.6093 171.966 68.7084 173.513C69.8074 175.059 104.1 176.612 108.615 175.577C108.993 175.588 109.36 175.435 109.634 175.153C109.908 174.871 110.068 174.483 110.079 174.073C110.535 171.189 110.903 168.301 111.149 165.39C111.279 163.89 111.374 162.389 111.47 160.886L112.496 144.929C112.61 143.807 112.596 142.673 112.453 141.554C112.185 140.035 111.355 137.461 109.923 136.777Z" fill="#352512"/>
<path d="M104.317 111.911C103.868 111.577 103.654 111.024 103.111 110.835C101.641 110.324 98.614 111.596 97.0935 111.894C96.5486 111.974 96.0151 112.127 95.5053 112.349C94.274 112.952 93.4926 114.306 93.0248 115.682C90.6834 122.56 94.5025 130.335 92.9713 137.476C92.6251 139.084 92.0144 140.611 91.5899 142.201C97.6074 142.429 103.468 139.405 109.468 139.919C110.721 140.024 112.13 140.416 112.719 141.617C112.753 141.589 112.787 141.561 112.819 141.531C113.017 141.35 113.18 141.129 113.299 140.88C113.418 140.631 113.49 140.359 113.512 140.08C113.534 139.801 113.505 139.52 113.426 139.253C113.348 138.986 113.222 138.738 113.055 138.524C112.863 138.336 112.688 138.13 112.53 137.909C112.37 137.576 112.29 137.205 112.298 136.83C111.855 129.14 110.151 121.596 107.266 114.553C107.091 114.042 106.821 113.574 106.474 113.18C105.907 112.558 105.001 112.384 104.317 111.911Z" fill="#0344F8"/>
<path d="M114.353 216.653L113.31 225.157L82.533 224.844L84.073 212.293L114.353 216.653Z" fill="#352512"/>
<path d="M122.229 215.58L118.865 243L118.545 242.954C115.932 242.578 113.564 241.092 111.961 238.825C110.359 236.558 109.654 233.694 110.001 230.863L110.001 230.862L112.056 214.115L122.229 215.58Z" fill="#2F2E41"/>
<path d="M38.0458 178.542C38.0458 178.928 37.4856 178.542 37.4344 178.128C37.042 175 34.7503 172.421 32.0806 171.168C29.411 169.916 26.3699 169.85 23.479 170.148C19.1069 170.596 14.1991 172.409 12.6002 176.836C12.2219 177.871 8.67788 187.086 9.02372 189.158C9.95538 194.687 13.4459 199.415 17.6754 202.69C21.9049 205.965 26.8468 207.921 31.7764 209.686C44.8098 214.342 58.1819 217.802 71.7511 220.028C73.9496 220.388 76.1698 220.72 78.2754 221.485C80.1597 222.17 81.923 223.194 83.7649 223.999C88.0479 225.861 92.6558 226.527 97.2205 227.181C97.9985 227.289 98.8908 227.366 99.4655 226.794C100.208 226.049 99.9623 224.749 99.751 223.678C98.9762 219.606 99.6263 215.367 101.575 211.785C102.339 210.394 103.333 208.967 103.188 207.356C103.017 205.477 101.289 204.147 99.5691 203.845C97.8487 203.544 96.1 203.988 94.372 204.232C93.7798 204.379 93.1593 204.313 92.6053 204.042C92.3486 203.855 92.1158 203.631 91.9129 203.378C90.7228 202.134 89.1998 201.331 87.5622 201.083C85.9245 200.835 84.2565 201.155 82.7973 201.997C82.1583 202.384 81.1923 201.522 80.5274 201.197L73.0213 197.516C64.3983 193.291 55.7325 189.045 46.6096 186.37C45.8817 186.215 45.1899 185.903 44.5751 185.453C44.1219 185.067 43.7971 184.543 43.3794 184.112C42.4691 183.18 41.2012 182.809 40.1102 182.148C39.0191 181.487 37.7959 179.868 38.0458 178.542Z" fill="#2F2E41"/>
<path d="M61.3784 176.339C64.3331 176.339 66.7283 173.745 66.7283 170.544C66.7283 167.343 64.3331 164.749 61.3784 164.749C58.4236 164.749 56.0284 167.343 56.0284 170.544C56.0284 173.745 58.4236 176.339 61.3784 176.339Z" fill="#FBBEBE"/>
<path d="M73.2247 176.339C76.1795 176.339 78.5747 173.745 78.5747 170.544C78.5747 167.343 76.1795 164.749 73.2247 164.749C70.27 164.749 67.8748 167.343 67.8748 170.544C67.8748 173.745 70.27 176.339 73.2247 176.339Z" fill="#FBBEBE"/>
<path d="M106.249 183.603H32.7482C31.8901 183.602 31.0674 183.232 30.4606 182.575C29.8537 181.918 29.5124 181.026 29.5114 180.097V131.794C29.5124 130.865 29.8537 129.973 30.4606 129.316C31.0674 128.659 31.8901 128.289 32.7482 128.288H106.249C107.107 128.289 107.93 128.659 108.536 129.316C109.143 129.973 109.485 130.865 109.486 131.794V180.097C109.485 181.026 109.143 181.918 108.536 182.575C107.93 183.232 107.107 183.602 106.249 183.603Z" fill="#3F3D56"/>
<path d="M69.3202 158.265C70.503 158.265 71.4618 157.227 71.4618 155.946C71.4618 154.664 70.503 153.626 69.3202 153.626C68.1375 153.626 67.1787 154.664 67.1787 155.946C67.1787 157.227 68.1375 158.265 69.3202 158.265Z" fill="white"/>
<path d="M331.71 87.117H236.216C235.709 87.1164 235.223 86.8981 234.865 86.5101C234.507 86.1221 234.306 85.596 234.305 85.0473V65.5501H235.069V85.0473C235.07 85.3765 235.19 85.6922 235.405 85.925C235.62 86.1578 235.912 86.2888 236.216 86.2891H331.71C332.014 86.2888 332.305 86.1578 332.52 85.925C332.735 85.6922 332.856 85.3765 332.856 85.0473V65.4139H333.621V85.0473C333.62 85.596 333.419 86.1221 333.061 86.5101C332.702 86.8981 332.217 87.1164 331.71 87.117Z" fill="#3F3D56"/>
<path d="M366.327 65.1362H141.926V65.9641H366.327V65.1362Z" fill="#3F3D56"/>
<path d="M141.942 72.6063C145.573 72.6063 148.516 69.4182 148.516 65.4855C148.516 61.5528 145.573 58.3647 141.942 58.3647C138.312 58.3647 135.369 61.5528 135.369 65.4855C135.369 69.4182 138.312 72.6063 141.942 72.6063Z" fill="#0344F8"/>
<path d="M49.5736 57.2416C53.2041 57.2416 56.1472 54.0535 56.1472 50.1208C56.1472 46.1881 53.2041 43 49.5736 43C45.9431 43 43 46.1881 43 50.1208C43 54.0535 45.9431 57.2416 49.5736 57.2416Z" fill="#0E0E0E"/>
<path d="M54.5736 50.2416C58.2041 50.2416 61.1472 47.0535 61.1472 43.1208C61.1472 39.1881 58.2041 36 54.5736 36C50.9431 36 48 39.1881 48 43.1208C48 47.0535 50.9431 50.2416 54.5736 50.2416Z" fill="#0E0E0E"/>
<path d="M61.5736 46.2416C65.2041 46.2416 68.1472 43.0535 68.1472 39.1208C68.1472 35.1881 65.2041 32 61.5736 32C57.9431 32 55 35.1881 55 39.1208C55 43.0535 57.9431 46.2416 61.5736 46.2416Z" fill="#0E0E0E"/>
<path d="M69.5736 45.2416C73.2041 45.2416 76.1472 42.0535 76.1472 38.1208C76.1472 34.1881 73.2041 31 69.5736 31C65.9431 31 63 34.1881 63 38.1208C63 42.0535 65.9431 45.2416 69.5736 45.2416Z" fill="#0E0E0E"/>
<path d="M77.5736 47.2416C81.2041 47.2416 84.1472 44.0535 84.1472 40.1208C84.1472 36.1881 81.2041 33 77.5736 33C73.9431 33 71 36.1881 71 40.1208C71 44.0535 73.9431 47.2416 77.5736 47.2416Z" fill="#0E0E0E"/>
<path d="M48.5 61C52.0899 61 55 58.3137 55 55C55 51.6863 52.0899 49 48.5 49C44.9101 49 42 51.6863 42 55C42 58.3137 44.9101 61 48.5 61Z" fill="#0E0E0E"/>
<path d="M84.5 58C88.0899 58 91 55.3137 91 52C91 48.6863 88.0899 46 84.5 46C80.9101 46 78 48.6863 78 52C78 55.3137 80.9101 58 84.5 58Z" fill="#0E0E0E"/>
<path d="M74.5 58C78.0899 58 81 55.3137 81 52C81 48.6863 78.0899 46 74.5 46C70.9101 46 68 48.6863 68 52C68 55.3137 70.9101 58 74.5 58Z" fill="#0E0E0E"/>
<path d="M82.5 50C86.0899 50 89 47.3137 89 44C89 40.6863 86.0899 38 82.5 38C78.9101 38 76 40.6863 76 44C76 47.3137 78.9101 50 82.5 50Z" fill="#0E0E0E"/>
<path d="M208.743 72.6063C212.373 72.6063 215.316 69.4182 215.316 65.4855C215.316 61.5528 212.373 58.3647 208.743 58.3647C205.112 58.3647 202.169 61.5528 202.169 65.4855C202.169 69.4182 205.112 72.6063 208.743 72.6063Z" fill="#0344F8"/>
<path d="M254.077 93.5361C257.707 93.5361 260.65 90.348 260.65 86.4153C260.65 82.4826 257.707 79.2945 254.077 79.2945C250.446 79.2945 247.503 82.4826 247.503 86.4153C247.503 90.348 250.446 93.5361 254.077 93.5361Z" fill="#3F3D56"/>
<path d="M288.541 93.5361C292.172 93.5361 295.115 90.348 295.115 86.4153C295.115 82.4826 292.172 79.2945 288.541 79.2945C284.911 79.2945 281.967 82.4826 281.967 86.4153C281.967 90.348 284.911 93.5361 288.541 93.5361Z" fill="#CCCCCC"/>
<path d="M271.84 72.6063C275.471 72.6063 278.414 69.4182 278.414 65.4855C278.414 61.5528 275.471 58.3647 271.84 58.3647C268.21 58.3647 265.267 61.5528 265.267 65.4855C265.267 69.4182 268.21 72.6063 271.84 72.6063Z" fill="#0344F8"/>
<path d="M365.426 72.6063C369.057 72.6063 372 69.4182 372 65.4855C372 61.5528 369.057 58.3647 365.426 58.3647C361.796 58.3647 358.853 61.5528 358.853 65.4855C358.853 69.4182 361.796 72.6063 365.426 72.6063Z" fill="#0344F8"/>
<path d="M333.239 72.6063C336.869 72.6063 339.812 69.4182 339.812 65.4855C339.812 61.5528 336.869 58.3647 333.239 58.3647C329.608 58.3647 326.665 61.5528 326.665 65.4855C326.665 69.4182 329.608 72.6063 333.239 72.6063Z" fill="#0344F8"/>
<path d="M260.027 0H247.834V9.10273H260.027V0Z" fill="#3F3D56"/>
<path d="M148.087 0H135.894V9.10273H148.087V0Z" fill="#0344F8"/>
<path d="M189.386 0H177.193V9.10273H189.386V0Z" fill="#CCCCCC"/>
<path d="M162.327 65.9641C162.226 65.9641 162.128 65.9204 162.057 65.8428C161.985 65.7652 161.945 65.6599 161.945 65.5501V45.1165C161.945 44.5678 162.147 44.0417 162.505 43.6537C162.863 43.2657 163.349 43.0474 163.855 43.0468H182.456C182.557 43.0468 182.655 43.0904 182.726 43.168C182.798 43.2456 182.838 43.3509 182.838 43.4607C182.838 43.5705 182.798 43.6758 182.726 43.7534C182.655 43.8311 182.557 43.8747 182.456 43.8747H163.855C163.551 43.875 163.26 44.006 163.045 44.2388C162.83 44.4716 162.709 44.7873 162.709 45.1165V65.5501C162.709 65.6599 162.669 65.7652 162.597 65.8428C162.525 65.9204 162.428 65.9641 162.327 65.9641Z" fill="#3F3D56"/>
<path d="M183.33 50.4267C186.961 50.4267 189.904 47.2387 189.904 43.3059C189.904 39.3732 186.961 36.1852 183.33 36.1852C179.7 36.1852 176.757 39.3732 176.757 43.3059C176.757 47.2387 179.7 50.4267 183.33 50.4267Z" fill="#E6E6E6"/>
<path d="M309.451 65.5501H308.687V45.1165C308.688 44.5678 308.889 44.0417 309.247 43.6537C309.606 43.2657 310.091 43.0474 310.598 43.0468H329.198V43.8747H310.598C310.294 43.875 310.002 44.006 309.787 44.2388C309.573 44.4716 309.452 44.7873 309.451 45.1165V65.5501Z" fill="#3F3D56"/>
<path d="M330.073 50.4267C333.703 50.4267 336.646 47.2387 336.646 43.3059C336.646 39.3732 333.703 36.1852 330.073 36.1852C326.442 36.1852 323.499 39.3732 323.499 43.3059C323.499 47.2387 326.442 50.4267 330.073 50.4267Z" fill="#E6E6E6"/>
<path d="M56.5 59C59.5376 59 62 56.9853 62 54.5C62 52.0147 59.5376 50 56.5 50C53.4624 50 51 52.0147 51 54.5C51 56.9853 53.4624 59 56.5 59Z" fill="#0E0E0E"/>
</svg>
